<?xml version="1.0" encoding="UTF-8"?><svg xmlns="http://www.w3.org/2000/svg" viewBox="0 0 557.6 200"><defs><style>.d{fill:none;}.e{fill:#fff;}.f{fill:#ff900e;}</style></defs><g id="a"/><g id="b"><g id="c"><g><path class="d" d="M146.89,129.28c-5.44,0-9.83,1.7-13.17,5.1-3.34,3.4-5.41,8.16-6.21,14.28h38.42c-1.02-6.35-3.12-11.16-6.29-14.45-3.17-3.29-7.42-4.93-12.75-4.93Z"/><path class="d" d="M318.75,129.28c-5.44,0-9.83,1.7-13.17,5.1-3.34,3.4-5.41,8.16-6.21,14.28h38.42c-1.02-6.35-3.12-11.16-6.29-14.45-3.17-3.29-7.42-4.93-12.75-4.93Z"/><path class="d" d="M515.1,129.28c-6.8,0-12.33,2.55-16.58,7.65-4.25,5.1-6.43,11.56-6.54,19.38,0,8.05,2.07,14.56,6.21,19.55,4.14,4.99,9.66,7.48,16.57,7.48s12.5-2.55,16.75-7.65c4.25-5.1,6.38-11.5,6.38-19.21s-2.07-14.59-6.21-19.64c-4.14-5.04-9.66-7.56-16.57-7.56Z"/><path class="e" d="M147.4,112.96c-8.27,0-15.44,1.81-21.5,5.44-6.06,3.63-10.71,8.7-13.94,15.21-3.23,6.52-4.85,14.08-4.85,22.7,0,13.37,3.94,23.94,11.82,31.7,7.88,7.76,19.29,11.65,34.25,11.65,11.11,0,21.25-3.17,30.43-9.52l-5.78-13.94c-4.87,2.49-9.04,4.33-12.5,5.53-3.46,1.19-7.4,1.78-11.81,1.78-15.87,0-24.65-7.37-26.35-22.1h57.12v-5.61c0-12.47-3.12-22.72-9.35-30.77-6.23-8.05-15.41-12.07-27.54-12.07Zm-19.89,35.7c.79-6.12,2.86-10.88,6.21-14.28,3.34-3.4,7.73-5.1,13.17-5.1s9.58,1.64,12.75,4.93c3.17,3.29,5.27,8.1,6.29,14.45h-38.42Z"/><polygon class="e" points="266.39 126.05 255.51 112.96 219.47 147.13 219.47 77.6 200.43 79.47 200.43 197.62 219.47 197.62 219.47 169.23 229.16 160.22 252.11 197.62 274.21 197.62 242.59 147.98 266.39 126.05"/><path class="e" d="M319.26,112.96c-8.27,0-15.44,1.81-21.5,5.44-6.06,3.63-10.71,8.7-13.94,15.21-3.23,6.52-4.85,14.08-4.85,22.7,0,13.37,3.94,23.94,11.82,31.7,7.88,7.76,19.29,11.65,34.25,11.65,11.11,0,21.25-3.17,30.43-9.52l-5.78-13.94c-4.87,2.49-9.04,4.33-12.5,5.53-3.46,1.19-7.4,1.78-11.81,1.78-15.87,0-24.65-7.37-26.35-22.1h57.12v-5.61c0-12.47-3.12-22.72-9.35-30.77-6.23-8.05-15.41-12.07-27.54-12.07Zm-19.89,35.7c.79-6.12,2.86-10.88,6.21-14.28,3.34-3.4,7.73-5.1,13.17-5.1s9.58,1.64,12.75,4.93c3.17,3.29,5.27,8.1,6.29,14.45h-38.42Z"/><path class="e" d="M417.52,150.36h24.65v31.11c-5.89,1.59-11.84,2.38-17.85,2.38-7.25,0-13.69-1.79-19.29-5.36-5.61-3.57-10-8.64-13.18-15.21-3.17-6.57-4.76-14.22-4.76-22.95,0-9.41,1.81-17.48,5.44-24.22,3.63-6.74,8.5-11.82,14.62-15.22,6.12-3.4,12.86-5.1,20.23-5.1,4.65,0,8.36,.31,11.13,.94,2.78,.62,7.23,1.9,13.35,3.82l5.95-13.77c-4.19-2.27-9.32-4.02-15.38-5.27-6.06-1.25-11.19-1.87-15.39-1.87-11.33,0-21.56,2.58-30.68,7.74-9.12,5.16-16.26,12.38-21.42,21.67-5.16,9.29-7.73,19.78-7.73,31.45s2.32,21.19,6.97,30.26c4.65,9.07,11.33,16.21,20.06,21.42,8.73,5.21,18.93,7.82,30.6,7.82,6.46,0,12.78-.76,18.96-2.29,6.18-1.53,11.42-3.54,15.73-6.04v-55.93h-40.46l-1.53,14.62Z"/><path class="e" d="M552.42,133.53c-3.46-6.57-8.39-11.65-14.79-15.21-6.4-3.57-13.91-5.36-22.52-5.36s-16.15,1.81-22.61,5.44c-6.46,3.63-11.42,8.7-14.88,15.21-3.46,6.52-5.19,14.08-5.19,22.7s1.73,16.35,5.19,22.86c3.46,6.52,8.36,11.59,14.71,15.21,6.35,3.63,13.83,5.44,22.44,5.44s16.15-1.81,22.61-5.44c6.46-3.62,11.45-8.73,14.96-15.3,3.51-6.57,5.27-14.17,5.27-22.78s-1.73-16.21-5.19-22.78Zm-20.91,42.16c-4.25,5.1-9.83,7.65-16.75,7.65s-12.44-2.49-16.57-7.48c-4.14-4.99-6.21-11.5-6.21-19.55,.11-7.82,2.29-14.28,6.54-19.38,4.25-5.1,9.77-7.65,16.58-7.65s12.44,2.52,16.57,7.56c4.14,5.04,6.21,11.59,6.21,19.64s-2.12,14.11-6.38,19.21Z"/><path class="f" d="M13.91,172.24h0c-7.66,0-13.88,6.21-13.88,13.88s6.21,13.88,13.88,13.88h0c7.66,0,13.88-6.21,13.88-13.88s-6.21-13.88-13.88-13.88Z"/><polygon class="e" points="96.16 95.66 60.17 95.66 27.76 126.39 27.76 0 0 27.76 0 164.9 27.76 164.9 27.76 158.61 41.88 145.48 75.34 200 107.56 200 61.46 127.63 96.16 95.66"/></g></g></g></svg>